<svg width="192" height="32" viewBox="0 0 192 32" fill="none" xmlns="http://www.w3.org/2000/svg">
<path d="M26.5786 13.2425L25.3793 18.8394H29.9949V23.3824H24.398L23.0897 29.5608H18.256L19.5643 23.3824H12.9498L11.6414 29.5608H6.84407L8.15244 23.3824H2.66455V18.8394H9.13371L10.3331 13.2425H4.88151V8.69954H11.3143L12.5864 2.6665H17.3837L16.1117 8.69954H22.7262L23.9983 2.6665H28.832L27.5599 8.69954H32.2119V13.2425H26.5786ZM21.7449 13.2425H15.1304L13.9311 18.8394H20.5456L21.7449 13.2425Z" fill="white"/>
<path d="M51.7648 25.2722H63.1767V29.5608H45.8771V25.6357L57.2163 8.48148H45.8771V4.19294H63.1767V8.11804L51.7648 25.2722Z" fill="white"/>
<path d="M80.01 29.8152C77.6356 29.8152 75.4549 29.2579 73.4682 28.1434C71.4814 27.0288 69.9065 25.4903 68.7435 23.5277C67.5805 21.541 66.999 19.2998 66.999 16.8042C66.999 14.3328 67.5805 12.1158 68.7435 10.1533C69.9065 8.1665 71.4814 6.61584 73.4682 5.5013C75.4549 4.38677 77.6356 3.8295 80.01 3.8295C82.4087 3.8295 84.5893 4.38677 86.5519 5.5013C88.5386 6.61584 90.1014 8.1665 91.2402 10.1533C92.4032 12.1158 92.9847 14.3328 92.9847 16.8042C92.9847 19.2998 92.4032 21.541 91.2402 23.5277C90.1014 25.4903 88.5386 27.0288 86.5519 28.1434C84.5651 29.2579 82.3845 29.8152 80.01 29.8152ZM80.01 25.2722C81.5364 25.2722 82.8811 24.933 84.0441 24.2546C85.2071 23.552 86.1157 22.5586 86.7699 21.2744C87.4241 19.9903 87.7512 18.5002 87.7512 16.8042C87.7512 15.1081 87.4241 13.6302 86.7699 12.3702C86.1157 11.0861 85.2071 10.1048 84.0441 9.42642C82.8811 8.748 81.5364 8.40879 80.01 8.40879C78.4836 8.40879 77.1267 8.748 75.9395 9.42642C74.7765 10.1048 73.8679 11.0861 73.2138 12.3702C72.5596 13.6302 72.2325 15.1081 72.2325 16.8042C72.2325 18.5002 72.5596 19.9903 73.2138 21.2744C73.8679 22.5586 74.7765 23.552 75.9395 24.2546C77.1267 24.933 78.4836 25.2722 80.01 25.2722Z" fill="white"/>
<path d="M111.889 16.5498C113.319 16.8163 114.494 17.531 115.414 18.694C116.335 19.857 116.795 21.1896 116.795 22.6918C116.795 24.0487 116.456 25.248 115.778 26.2899C115.124 27.3075 114.167 28.107 112.907 28.6885C111.647 29.27 110.157 29.5608 108.436 29.5608H97.497V4.19294H107.964C109.684 4.19294 111.162 4.47157 112.398 5.02884C113.658 5.58611 114.603 6.36144 115.233 7.35483C115.887 8.34822 116.214 9.47487 116.214 10.7348C116.214 12.2128 115.814 13.4484 115.015 14.4418C114.239 15.4352 113.197 16.1379 111.889 16.5498ZM102.585 14.6599H107.237C108.448 14.6599 109.381 14.3934 110.036 13.8603C110.69 13.3031 111.017 12.5156 111.017 11.498C111.017 10.4804 110.69 9.69293 110.036 9.13567C109.381 8.5784 108.448 8.29976 107.237 8.29976H102.585V14.6599ZM107.71 25.4176C108.945 25.4176 109.902 25.1269 110.581 24.5454C111.283 23.9639 111.635 23.1401 111.635 22.074C111.635 20.9837 111.271 20.1357 110.544 19.5299C109.817 18.9 108.836 18.585 107.6 18.585H102.585V25.4176H107.71Z" fill="white"/>
<path d="M137.133 24.7271H127.029L125.357 29.5608H120.015L129.137 4.15659H135.061L144.183 29.5608H138.804L137.133 24.7271ZM135.751 20.6566L132.081 10.0443L128.41 20.6566H135.751Z" fill="white"/>
<path d="M163.875 24.7271H153.771L152.1 29.5608H146.757L155.879 4.15659H161.803L170.926 29.5608H165.547L163.875 24.7271ZM162.494 20.6566L158.823 10.0443L155.152 20.6566H162.494Z" fill="white"/>
<path d="M190.574 5.09572L185.469 21.901L181.327 20.7911L185.274 3.67535L190.574 5.09572ZM181.302 29.5889C180.413 29.3506 179.748 28.8839 179.307 28.1889C178.896 27.4767 178.8 26.711 179.02 25.8919C179.239 25.0728 179.702 24.4693 180.408 24.0816C181.143 23.6767 181.956 23.5934 182.845 23.8316C183.711 24.0637 184.35 24.5358 184.761 25.248C185.178 25.9367 185.277 26.6907 185.058 27.5098C184.838 28.3289 184.372 28.9441 183.66 29.3553C182.954 29.7431 182.168 29.8209 181.302 29.5889Z" fill="white"/>
</svg>
